# xmcd CD database file
#
# Track frame offsets:
#	150
#	21095
#	38152
#	58102
#	75852
#	90055
#	109192
#	122477
#	134392
#	155320
#	174760
#	195920
#	216822
#
# Disc length: 3147 seconds
#
# Revision: 0
# Processed by: cddbd v1.5PL3 Copyright (c) Steve Scherf et al.
# Submitted via: CDex 1.51
#
DISCID=8f0c490d
DTITLE=Tuck and Patti - Paradise Found
DYEAR=1900
DGENRE=Jazz
TTITLE0=Lembrancas
TTITLE1=Adventures In Paradise
TTITLE2=Captain For Dark Mornings
TTITLE3=Joy Spring
TTITLE4=I've Grown Accustomed To Her Face
TTITLE5=Holiday...Paradise Found
TTITLE6=I Will
TTITLE7=Walkin' One And Only
TTITLE8=Forgiveness
TTITLE9=You
TTITLE10=Let's Stay Together
TTITLE11=Lembrancas (Bonus Remix)
TTITLE12=You (Bonus Remix)
EXTD=
EXTT0=
EXTT1=
EXTT2=
EXTT3=
EXTT4=
EXTT5=
EXTT6=
EXTT7=
EXTT8=
EXTT9=
EXTT10=
EXTT11=
EXTT12=
PLAYORDER=
